<?xml version="1.0" standalone="no"?>
<!DOCTYPE svg PUBLIC "-//W3C//DTD SVG 20010904//EN"
 "http://www.w3.org/TR/2001/REC-SVG-20010904/DTD/svg10.dtd">
<svg version="1.0" xmlns="http://www.w3.org/2000/svg"
 width="500.000000pt" height="500.000000pt" viewBox="0 0 500.000000 500.000000"
 preserveAspectRatio="xMidYMid meet">

<g transform="translate(0.000000,500.000000) scale(0.100000,-0.100000)"
fill="#000000" stroke="none">
<path d="M694 4565 c-166 -36 -327 -159 -406 -312 -79 -151 -73 14 -73 -1858
0 -1593 1 -1673 18 -1730 65 -209 223 -367 432 -432 57 -17 119 -18 1105 -18
986 0 1048 1 1105 18 173 53 309 167 387 324 66 130 69 165 66 600 l-3 371
-30 44 c-43 61 -95 88 -170 88 -75 0 -127 -27 -170 -88 l-30 -44 -5 -377 -5
-378 -30 -49 c-23 -37 -44 -56 -85 -77 l-54 -27 -986 2 -985 3 -47 28 c-31 18
-57 44 -75 75 l-28 47 -3 1610 -2 1611 27 54 c21 41 40 62 77 85 l49 30 981 3
c876 2 985 1 1023 -13 57 -22 90 -49 116 -98 21 -40 22 -57 27 -314 l5 -271
30 -44 c43 -61 95 -88 170 -88 75 0 127 27 170 88 l30 44 3 278 c3 316 -3 362
-66 490 -51 104 -168 221 -272 272 -143 71 -92 68 -1220 67 -807 0 -1028 -3
-1076 -14z"/>
<path d="M3690 3529 c-50 -15 -97 -54 -120 -99 -22 -44 -27 -131 -9 -177 5
-15 122 -141 260 -278 137 -138 249 -256 249 -263 0 -9 -266 -12 -1230 -12
-1209 0 -1231 0 -1270 -20 -49 -25 -85 -72 -101 -133 -24 -87 21 -186 101
-227 39 -20 61 -20 1270 -20 981 0 1230 -3 1230 -13 0 -6 -108 -120 -241 -252
-132 -132 -249 -257 -260 -277 -26 -50 -25 -136 1 -188 41 -81 136 -122 232
-100 52 12 62 21 500 458 246 246 455 461 464 480 24 50 28 97 14 149 -12 44
-48 83 -459 495 -245 246 -460 455 -477 463 -43 20 -111 27 -154 14z"/>
</g>
</svg>
