<?xml version="1.0" standalone="no"?>
<!DOCTYPE svg PUBLIC "-//W3C//DTD SVG 20010904//EN"
 "http://www.w3.org/TR/2001/REC-SVG-20010904/DTD/svg10.dtd">
<svg version="1.0" xmlns="http://www.w3.org/2000/svg"
 width="500.000000pt" height="500.000000pt" viewBox="0 0 500.000000 500.000000"
 preserveAspectRatio="xMidYMid meet">
<metadata>
Created by potrace 1.14, written by Peter Selinger 2001-2017
</metadata>
<g transform="translate(0.000000,500.000000) scale(0.100000,-0.100000)"
fill="#000000" stroke="none">
<path d="M0 2500 l0 -2500 2500 0 2500 0 0 2500 0 2500 -2500 0 -2500 0 0
-2500z m4589 1033 c170 -164 309 -299 308 -299 -5 -5 -2557 -58 -2560 -54 -8
9 -17 600 -9 601 4 0 423 11 932 23 509 13 946 24 972 25 l47 1 310 -297z
m-3114 142 c242 -29 594 -43 687 -27 40 6 65 6 80 -2 29 -15 51 -60 43 -87 -8
-24 -231 -193 -414 -313 -300 -198 -594 -336 -869 -407 -369 -96 -676 -9 -786
221 -27 57 -31 76 -31 151 0 79 3 91 38 163 55 111 121 173 250 236 168 81
286 101 582 95 127 -3 281 -14 420 -30z m629 -737 c9 -12 16 -29 16 -36 0 -8
-25 -57 -55 -109 -64 -113 -108 -228 -131 -350 -27 -132 -24 -374 5 -587 53
-383 9 -549 -171 -647 -58 -32 -69 -34 -153 -34 -82 0 -97 3 -155 32 -162 80
-292 241 -352 433 -42 138 -29 332 36 503 44 116 124 262 189 343 145 179 397
355 637 445 92 34 114 35 134 7z m1595 -328 l309 -295 -57 -7 c-31 -3 -328
-11 -661 -18 -333 -6 -683 -14 -777 -17 l-171 -6 -4 304 c-3 167 -2 307 1 311
5 6 840 27 989 24 l63 -1 308 -295z"/>
</g>
</svg>
